<?xml version="1.0"?>
<svg xmlns="http://www.w3.org/2000/svg" viewBox="0 0 32 32">
    <path style="text-indent:0;text-align:start;line-height:normal;text-transform:none;block-progression:tb;-inkscape-font-specification:Bitstream Vera Sans" d="M 3 6 L 3 7 L 3 24 L 3 25 L 14.25 25 C 13.688 24.444 13.21425 23.8065 12.90625 23.0625 L 12.90625 23 L 11.75 23 L 13.40625 19.1875 L 14.84375 22.65625 C 15.241535 23.616939 15.930984 24.448583 16.8125 25 L 19.6875 26.78125 L 18.0625 31.03125 L 19.9375 31.75 L 21.5625 27.5 C 21.900539 26.613144 21.5561 25.597316 20.75 25.09375 L 17.875 23.28125 C 17.346516 22.950667 16.925715 22.481561 16.6875 21.90625 L 14.875 17.5625 L 16.71875 16.75 L 18.9375 21.59375 L 19.46875 22 L 22.875 22 L 20.53125 20.28125 L 18.5625 15.96875 L 21.40625 14.75 L 22 14.5 L 22 13.84375 L 22 9 L 20 9 L 20 13.15625 L 16.0625 14.875 C 16.644664 14.248996 17 13.414528 17 12.5 C 17 10.578848 15.421152 9 13.5 9 C 11.578848 9 10 10.578848 10 12.5 C 10 14.3995 11.545785 15.964968 13.4375 16 C 12.766189 16.306579 12.232749 16.853486 11.9375 17.53125 L 9.53125 23 L 5 23 L 5 8 L 27 8 L 27 23 L 20.28125 23 L 22.28125 24.25 C 22.60425 24.452 22.87675 24.708 23.09375 25 L 29 25 L 29 24 L 29 23 L 29 7 L 29 6 L 28 6 L 4 6 L 3 6 z M 13.5 11 C 14.340272 11 15 11.659728 15 12.5 C 15 13.340272 14.340272 14 13.5 14 C 12.659728 14 12 13.340272 12 12.5 C 12 11.659728 12.659728 11 13.5 11 z" overflow="visible" font-family="Bitstream Vera Sans"/>
</svg>
