<?xml version="1.0"?>
<svg xmlns="http://www.w3.org/2000/svg" viewBox="0 0 32 32">
    <path d="M 4 5 L 4 6 L 4 26 L 4 27 L 5 27 L 21 27 C 23.136138 27 25.118182 26.342755 26.59375 25.09375 C 28.069318 23.844745 29 21.984469 29 19.78125 C 29 16.965027 27.108768 13.991696 25.3125 11.5625 C 23.516232 9.1333035 21.71875 7.3125 21.71875 7.3125 L 21.03125 6.59375 L 20.3125 7.25 C 20.3125 7.25 19.277401 8.2051595 18 9.6875 L 18 6 L 18 5 L 17 5 L 5 5 L 4 5 z M 6 7 L 16 7 L 16 12.28125 C 14.984438 13.7075 14.016776 15.301319 13.46875 17 L 12 17 L 12 19 L 13.0625 19 C 13.036449 19.260718 13 19.519355 13 19.78125 C 13 20.199724 13.029242 20.608109 13.09375 21 L 12 21 L 12 23 L 13.78125 23 C 14.170938 23.761865 14.681752 24.444908 15.3125 25 L 6 25 L 6 7 z M 8 9 L 8 11 L 10 11 L 10 9 L 8 9 z M 12 9 L 12 11 L 14 11 L 14 9 L 12 9 z M 20.96875 9.53125 C 21.468432 10.061286 22.333501 10.918909 23.6875 12.75 C 25.391232 15.054054 27 17.974473 27 19.78125 C 27 21.444031 26.370432 22.667005 25.3125 23.5625 C 25.209263 23.649886 25.111884 23.732022 25 23.8125 C 25.073835 23.506295 25.125 23.202138 25.125 22.875 C 25.125 17.94935 22.4375 14.96875 22.4375 14.96875 L 20.625 12.9375 L 20.6875 15.65625 C 20.6875 15.65625 20.71047 16.635494 20.59375 17.5625 C 20.54191 17.9742 20.462366 18.318317 20.375 18.5625 C 20.27983 18.50611 20.232813 18.52048 20.09375 18.375 C 19.854368 18.124567 19.6875 17.875 19.6875 17.875 L 18.71875 16.34375 L 17.9375 17.96875 C 17.9375 17.96875 16.875 20.061287 16.875 22.875 C 16.875 23.188567 16.927174 23.487292 17 23.78125 C 16.893826 23.704283 16.785821 23.645724 16.6875 23.5625 C 15.629568 22.667005 15 21.444031 15 19.78125 C 15 17.556352 16.588557 14.704129 18.28125 12.5 C 19.619251 10.757731 20.46696 10.016609 20.96875 9.53125 z M 8 13 L 8 15 L 10 15 L 10 13 L 8 13 z M 12 13 L 12 15 L 14 15 L 14 13 L 12 13 z M 8 17 L 8 19 L 10 19 L 10 17 L 8 17 z M 22.34375 18.875 C 22.752705 19.933091 23.125 21.205608 23.125 22.875 C 23.125 23.905268 22.407666 24.771285 21.4375 24.96875 C 21.298905 24.996959 21.147181 25 21 25 C 20.848475 25 20.710701 24.976941 20.5625 24.96875 C 19.592334 24.771285 18.875 23.905268 18.875 22.875 C 18.875 21.82585 19.093229 20.983732 19.28125 20.28125 C 19.619592 20.524628 20.008004 20.71875 20.5625 20.71875 C 20.993075 20.71875 21.400156 20.529038 21.65625 20.28125 C 21.912344 20.033462 22.071562 19.7706 22.1875 19.5 C 22.27356 19.299133 22.288252 19.082918 22.34375 18.875 z M 8 21 L 8 23 L 10 23 L 10 21 L 8 21 z"/>
</svg>
