<?xml version="1.0" encoding="iso-8859-1"?>
<!-- Generator: Adobe Illustrator 18.0.0, SVG Export Plug-In . SVG Version: 6.00 Build 0)  -->
<!DOCTYPE svg PUBLIC "-//W3C//DTD SVG 1.1//EN" "http://www.w3.org/Graphics/SVG/1.1/DTD/svg11.dtd">
<svg version="1.1" id="Capa_1" xmlns="http://www.w3.org/2000/svg" xmlns:xlink="http://www.w3.org/1999/xlink" x="0px" y="0px"
	 viewBox="0 0 380.666 380.666" style="enable-background:new 0 0 380.666 380.666;" xml:space="preserve">
<path d="M276.333,354V11.666h-17.666V0H121.999v11.666h-17.666V354H75v26.666h230.666V354H276.333z M173.333,34.666h34v34h-34
	V34.666z M173.333,84.666h34v34h-34V84.666z M173.333,134.666h34v34h-34V134.666z M173.333,184.666h34v34h-34V184.666z
	 M173.333,234.666h34v34h-34V234.666z M123.333,34.666h34v34h-34V34.666z M123.333,84.666h34v34h-34V84.666z M123.333,134.666h34v34
	h-34V134.666z M123.333,184.666h34v34h-34V184.666z M123.333,234.666h34v34h-34V234.666z M180.864,354h-45.486v-69.334h45.486V354z
	 M245.288,354h-45.486v-69.334h45.486V354z M257.333,268.666h-34v-34h34V268.666z M257.333,218.666h-34v-34h34V218.666z
	 M257.333,168.666h-34v-34h34V168.666z M257.333,118.666h-34v-34h34V118.666z M257.333,68.666h-34v-34h34V68.666z"/>
<g>
</g>
<g>
</g>
<g>
</g>
<g>
</g>
<g>
</g>
<g>
</g>
<g>
</g>
<g>
</g>
<g>
</g>
<g>
</g>
<g>
</g>
<g>
</g>
<g>
</g>
<g>
</g>
<g>
</g>
</svg>
