<svg height="512pt" viewBox="0 0 512 512" width="512pt" xmlns="http://www.w3.org/2000/svg"><path d="m104.667969 271h163.679687v39.5h-163.679687zm0 0"/><path d="m104.667969 340.5h163.679687v37.75h-163.679687zm0 0"/><path d="m0 91.851562v65.667969h512v-65.667969h-53.65625v-61.851562h19.84375v-30h-189.683594v30h19.84375v61.851562zm0 0"/><path d="m104.667969 408.25h163.679687v37.75h-163.679687zm0 0"/><path d="m21.777344 512h52.890625v-271h223.679687v271h191.875v-324.480469h-468.445312zm318.867187-271h97.355469v129h-97.355469zm0 0"/><path d="m104.667969 476h163.679687v36h-163.679687zm0 0"/><path d="m370.644531 271h37.355469v69h-37.355469zm0 0"/></svg>