<?xml version="1.0" encoding="iso-8859-1"?>
<svg version="1.1" id="Capa_1" xmlns="http://www.w3.org/2000/svg" xmlns:xlink="http://www.w3.org/1999/xlink" x="0px" y="0px"
	 viewBox="0 0 512 512" style="enable-background:new 0 0 512 512;" xml:space="preserve">
		<path d="M495,482V251.667h-90.667V482h-30V0H137.667v482h-30V251.667H17V482H0v30h512v-30H495z M76.833,403.167h-30V360.5h30
			V403.167z M208,86.334h33v-33h30v33h33v30h-33v33h-30v-33h-33V86.334z M198.333,192h30v42.667h-30V192z M198.333,277.334h30V320
			h-30V277.334z M313.666,482h-30v-83h-55.333v83h-30V369h115.333V482z M313.667,320h-30v-42.667h30V320z M313.667,234.667h-30V192
			h30V234.667z M465.167,403.167h-30V360.5h30V403.167z"/>
</svg>
