<svg height="512pt" viewBox="0 0 512 511" width="512pt" xmlns="http://www.w3.org/2000/svg"><path d="m512 191.496094v-30.03125h-91.648438v76.449218h32.253907v30h-32.253907v30.003907h32.253907v30h-32.253907v30.003906h32.253907v30h-32.253907v93.796875h-30v-356.207031h42.253907v-29.964844h-72.550781v5.660156c0 34.59375-21.933594 57.925781-45.632813 77.984375-18.351563 15.53125-36.375 25.144532-38.371094 26.191406l-19.609375 10.265626-19.601562-10.261719c-.792969-.414063-19.671875-10.363281-38.378906-26.195313-23.699219-20.058594-45.632813-43.390625-45.632813-77.984375v-5.660156h-73.433594v29.964844h42.257813v356.207031h-30v-93.796875h-32.257813v-30h32.253907v-30.003906h-32.253907v-30h32.253907v-30.003907h-32.253907v-30h32.253907v-76.449218h-91.648438v30.03125h24v290.730468h-24v30.035157h512v-30.035157h-24v-290.730468zm-210.765625 290.222656h-30v-55.433594h-30.46875v55.433594h-30v-85.433594h90.46875zm38.671875-114h-167.8125v-30h167.8125zm0-58.5h-167.8125v-30h167.8125zm0-58.5h-167.8125v-30h167.8125zm0 0"/><path d="m237.917969 11.226562-15.628907-10.726562-54.613281 36.578125 15.152344 22.621094v41.503906c0 18.3125 9.816406 33.757813 35.015625 55.082031 16.199219 13.710938 38.597656 25.496094 38.597656 25.496094s22.433594-11.8125 38.597656-25.496094c25.199219-21.324218 35.015626-36.769531 35.015626-55.082031v-41.789063l13.785156-22.621093-54.1875-36.292969-15.632813 10.726562zm0 0"/></svg>