<svg height="1065pt" viewBox="-64 -33 1065 1065.0001" width="1065pt" xmlns="http://www.w3.org/2000/svg"><path d="m501.054688 879.417969h-335.40625c-16.125 0-29.25-13.128907-29.25-29.253907 0-16.136718 13.125-29.25 29.25-29.25h208.660156c16.152344 0 29.25-13.101562 29.25-29.253906s-13.097656-29.25-29.25-29.25h-208.660156c-48.386719 0-87.753907 39.359375-87.753907 87.753906 0 48.386719 39.367188 87.753907 87.753907 87.753907h335.40625c16.128906 0 29.25 13.125 29.25 29.25 0 16.15625 13.105468 29.25 29.25 29.25 16.160156 0 29.253906-13.09375 29.253906-29.25 0-48.386719-39.359375-87.75-87.753906-87.75zm0 0"/><path d="m699.960938 645.398438h-335.367188c-17.925781 0-27.300781-14.726563-27.300781-29.265626 0-14.527343 9.375-29.230468 27.300781-29.230468h177.417969c16.160156 0 29.25-13.09375 29.25-29.25 0-16.148438-13.089844-29.25-29.25-29.25h-177.417969c-48.113281 0-85.804688 38.535156-85.804688 87.730468 0 49.214844 37.6875 87.769532 85.804688 87.769532h335.367188c16.125 0 29.25 13.117187 29.25 29.257812 0 16.121094-13.125 29.25-29.25 29.25h-208.65625c-16.148438 0-29.25 13.097656-29.25 29.25 0 16.15625 13.101562 29.253906 29.25 29.253906h208.65625c48.386718 0 87.757812-39.371093 87.757812-87.753906 0-48.386718-39.371094-87.761718-87.757812-87.761718zm0 0"/><path d="m902.777344-2.019531h-877.53125c-16.15625 0-29.253906 13.097656-29.253906 29.253906v118.953125c0 48.386719 39.371093 87.753906 87.753906 87.753906h760.527344c48.386718 0 87.753906-39.367187 87.753906-87.753906v-118.953125c0-16.15625-13.101563-29.253906-29.25-29.253906zm0 0"/><path d="m284.628906 466h29.226563v-174.203125h-186.867188c24.84375 39.714844 83.265625 133.019531 83.265625 133.019531 16.398438 26.167969 43.5 41.183594 74.375 41.183594zm0 0"/><path d="m372.355469 291.796875h183.308593v174.203125h-183.308593zm0 0"/><path d="m614.167969 466h29.113281c30.90625 0 58.023438-15.027344 74.410156-41.234375 12.550782-20.085937 57.992188-92.644531 68.167969-108.851563 5.050781-8.042968 10.089844-16.085937 15.136719-24.117187h-186.828125zm0 0"/></svg>